<?xml version="1.0" encoding="UTF-8"?>
<svg width="187px" height="43px" viewBox="0 0 187 43" version="1.1" xmlns="http://www.w3.org/2000/svg" xmlns:xlink="http://www.w3.org/1999/xlink">
    <!-- Generator: Sketch 41.2 (35397) - http://www.bohemiancoding.com/sketch -->
    <title>sttarter_logo</title>
    <desc>Created with Sketch.</desc>
    <defs></defs>
    <g id="Main_Dblue" stroke="none" stroke-width="1" fill="none" fill-rule="evenodd">
        <g id="HOME" transform="translate(-196.000000, -51.000000)">
            <g id="TOP" transform="translate(-5.000000, 0.000000)">
                <g id="sttarter_logo" transform="translate(203.000000, 52.000000)">
                    <path d="M33.9646489,9.77487179 C34.4188343,9.32666667 34.6469663,8.78153846 34.6469663,8.14051282 C34.6469663,7.49948718 34.4188343,6.95487179 33.9646489,6.50564103 C33.5099438,6.0574359 32.9575421,5.83282051 32.3084831,5.83282051 C31.6589045,5.83282051 31.1065028,6.0574359 30.6517978,6.50564103 C30.1970927,6.95487179 29.97,7.49948718 29.97,8.14051282 C29.97,8.78153846 30.1970927,9.32666667 30.6517978,9.77487179 C31.1065028,10.2235897 31.6589045,10.4476923 32.3084831,10.4476923 C32.9575421,10.4476923 33.5099438,10.2235897 33.9646489,9.77487179 L33.9646489,9.77487179 Z M40.1029073,1.21794872 C40.1029073,5.20769231 39.4897051,8.6574359 38.2638202,11.565641 C37.0374157,14.474359 34.9790309,17.3625641 32.0891854,20.2312821 C30.7739185,21.5133333 29.1905056,22.9230769 27.3394663,24.4615385 L26.8520225,33.5717949 C26.8192837,33.8282051 26.6898876,34.0364103 26.4622753,34.1964103 L17.1088624,39.5810256 C16.9950562,39.6446154 16.8656601,39.6769231 16.7191152,39.6769231 C16.5247612,39.6769231 16.3376826,39.6046154 16.1589185,39.4605128 L14.6004494,37.9220513 C14.3889466,37.6974359 14.3239888,37.4415385 14.4055758,37.1533333 L16.4759129,30.5189744 L9.63143258,23.7646154 L2.90855337,25.8076923 C2.85970506,25.8235897 2.78643258,25.8317949 2.68925562,25.8317949 C2.46164326,25.8317949 2.27508427,25.7594872 2.12905899,25.6153846 L0.570070225,24.0769231 C0.294129213,23.7728205 0.253595506,23.46 0.448469101,23.1394872 L5.90441011,13.9092308 C6.06654494,13.6851282 6.27804775,13.5569231 6.53787921,13.5246154 L15.7691713,13.0441026 C17.3281601,11.2169231 18.7572331,9.65487179 20.0563904,8.35641026 C23.1088904,5.36051282 26.0158848,3.29333333 28.7763343,2.15487179 C31.5367837,1.0174359 35.0361938,0.448205128 39.2745646,0.448205128 C39.502177,0.448205128 39.6965309,0.524615385 39.8591854,0.676923077 C40.0213202,0.829230769 40.1029073,1.00974359 40.1029073,1.21794872 L40.1029073,1.21794872 Z" id="Stroke-1" stroke="#2BDBFF" stroke-width="2.772"></path>
                    <path d="M60.501236,6.57076923 C60.1951545,6.90205128 59.6843258,6.90153846 59.3475843,6.6 C58.9235393,6.22 58.4080337,5.88615385 57.8015871,5.59897436 C56.890618,5.16871795 55.9739326,4.95282051 55.0515309,4.95282051 C54.5022472,4.95282051 53.9534831,5.02102564 53.4052388,5.15589744 C52.8559551,5.29128205 52.3575983,5.50102564 51.9086096,5.78358974 C51.4591011,6.06666667 51.0911798,6.43589744 50.8048455,6.89128205 C50.5174719,7.34666667 50.3745646,7.89435897 50.3745646,8.53435897 C50.3745646,9.12512821 50.498764,9.62974359 50.7482022,10.0482051 C50.9976404,10.4666667 51.340618,10.8235897 51.7776545,11.1189744 C52.2136517,11.414359 52.7437079,11.6728205 53.3673034,11.894359 C53.9908989,12.1158974 54.6768539,12.3374359 55.4251685,12.5589744 C56.2732584,12.8302564 57.1525281,13.1374359 58.0634972,13.4820513 C58.973427,13.8271795 59.8090449,14.2820513 60.5703511,14.8482051 C61.330618,15.4148718 61.9547331,16.1282051 62.440618,16.9897436 C62.9270225,17.8517949 63.1707444,18.9225641 63.1707444,20.2020513 C63.1707444,21.6051282 62.9088343,22.8302564 62.3844944,23.8758974 C61.8611938,24.9225641 61.1622472,25.7902564 60.2897331,26.4789744 C59.4161798,27.1687179 58.3934831,27.6851282 57.2211236,28.0297436 C56.048764,28.3738462 54.8140449,28.5466667 53.5169663,28.5466667 C51.7958427,28.5466667 50.1126545,28.2328205 48.4663624,27.6051282 C47.1032865,27.085641 45.9454775,26.3594872 44.9929354,25.4261538 C44.6681461,25.1087179 44.6749017,24.5871795 45.0090449,24.2794872 L47.1729213,22.2866667 C47.4992697,21.985641 48.004382,22.0138462 48.3099438,22.3358974 C48.880014,22.9358974 49.5742837,23.4302564 50.3932725,23.8205128 C51.4783287,24.3374359 52.5441573,24.5958974 53.5923174,24.5958974 C54.1405618,24.5958974 54.7017978,24.5282051 55.2760253,24.3928205 C55.8492135,24.2579487 56.3667978,24.0302564 56.8287781,23.7097436 C57.2897191,23.3902564 57.6638764,22.9897436 57.95125,22.5097436 C58.2375843,22.0297436 58.3810112,21.4333333 58.3810112,20.7189744 C58.3810112,20.0302564 58.2188764,19.4579487 57.8951264,19.0020513 C57.5703371,18.5466667 57.1338202,18.1528205 56.5855758,17.8205128 C56.0362921,17.4882051 55.3882725,17.1989744 54.6399579,16.9528205 C53.8916433,16.7071795 53.1053933,16.4482051 52.2822472,16.1774359 C51.4840449,15.9317949 50.6858427,15.6358974 49.8881601,15.2912821 C49.0894382,14.9466667 48.372823,14.4917949 47.736236,13.9251282 C47.1006882,13.3589744 46.5825843,12.6641026 46.1840028,11.8389744 C45.784382,11.014359 45.5853511,9.98717949 45.5853511,8.75589744 C45.5853511,7.42666667 45.8654494,6.28205128 46.4266854,5.32205128 C46.988441,4.36205128 47.723764,3.56820513 48.6347331,2.94051282 C49.5446629,2.31282051 50.5803511,1.84512821 51.7397191,1.5374359 C52.8996067,1.22974359 54.0787219,1.07589744 55.2760253,1.07589744 C56.6229916,1.07589744 57.9881461,1.30974359 59.3730478,1.7774359 C60.4690169,2.14769231 61.4511798,2.66461538 62.3205758,3.32769231 C62.6916152,3.61076923 62.7373455,4.14871795 62.4213904,4.49076923 L60.501236,6.57076923" id="Fill-3" fill="#FFFFFF"></path>
                    <path d="M71.8356039,5.80205128 L65.3185112,5.80205128 C64.8762781,5.80205128 64.517191,5.44769231 64.517191,5.01128205 L64.517191,2.53076923 C64.517191,2.09435897 64.8762781,1.74051282 65.3185112,1.74051282 L84.6691994,1.74051282 C85.1114326,1.74051282 85.47,2.09435897 85.47,2.53076923 L85.47,5.01128205 C85.47,5.44769231 85.1114326,5.80205128 84.6691994,5.80205128 L78.1521067,5.80205128 C77.7093539,5.80205128 77.3507865,6.15589744 77.3507865,6.59230769 L77.3507865,27.0917949 C77.3507865,27.5282051 76.9922191,27.8820513 76.549986,27.8820513 L73.4377247,27.8820513 C72.9954916,27.8820513 72.6364045,27.5282051 72.6364045,27.0917949 L72.6364045,6.59230769 C72.6364045,6.15589744 72.2778371,5.80205128 71.8356039,5.80205128" id="Fill-4" fill="#FFFFFF"></path>
                    <path d="M93.0872191,5.80205128 L86.5706461,5.80205128 C86.1278933,5.80205128 85.7693258,5.44769231 85.7693258,5.01128205 L85.7693258,2.53076923 C85.7693258,2.09435897 86.1278933,1.74051282 86.5706461,1.74051282 L105.920815,1.74051282 C106.363048,1.74051282 106.721615,2.09435897 106.721615,2.53076923 L106.721615,5.01128205 C106.721615,5.44769231 106.363048,5.80205128 105.920815,5.80205128 L99.4037219,5.80205128 C98.9609691,5.80205128 98.6024017,6.15589744 98.6024017,6.59230769 L98.6024017,27.0917949 C98.6024017,27.5282051 98.2438343,27.8820513 97.8016011,27.8820513 L94.6898596,27.8820513 C94.2471067,27.8820513 93.8885393,27.5282051 93.8885393,27.0917949 L93.8885393,6.59230769 C93.8885393,6.15589744 93.5299719,5.80205128 93.0872191,5.80205128" id="Fill-5" fill="#FFFFFF"></path>
                    <path d="M117.048876,19.7958974 L116.038652,19.7958974 C115.314761,19.7958974 114.554494,19.8271795 113.756292,19.8882051 C112.95757,19.9497436 112.222247,20.085641 111.548764,20.294359 C110.875281,20.5035897 110.314045,20.7989744 109.865056,21.1805128 C109.416067,21.5625641 109.191573,22.0851282 109.191573,22.7502564 C109.191573,23.1687179 109.285112,23.5194872 109.472191,23.8020513 C109.65927,24.0851282 109.902472,24.3128205 110.201798,24.4851282 C110.501124,24.6574359 110.837865,24.7805128 111.212022,24.854359 C111.58618,24.9287179 111.960337,24.9651282 112.334494,24.9651282 C113.881011,24.9651282 115.052851,24.5589744 115.851573,23.7466667 C116.649775,22.934359 117.048876,21.8266667 117.048876,20.4235897 L117.048876,19.7958974 L117.048876,19.7958974 Z M117.123708,25.6297436 L117.011461,25.6297436 C116.562472,26.4179487 115.838581,27.0641026 114.841348,27.5682051 C113.843076,28.0723077 112.708652,28.3251282 111.436517,28.3251282 C110.712626,28.3251282 109.958596,28.2328205 109.172865,28.0487179 C108.387135,27.8635897 107.663244,27.5564103 107.002753,27.1251282 C106.341742,26.6948718 105.792458,26.1282051 105.356461,25.4266667 C104.919424,24.7251282 104.701685,23.8574359 104.701685,22.8235897 C104.701685,21.494359 105.081559,20.4364103 105.842865,19.6482051 C106.603652,18.8605128 107.582697,18.2579487 108.78,17.8389744 C109.977303,17.4205128 111.305562,17.1435897 112.764775,17.0082051 C114.223989,16.8733333 115.651503,16.8051282 117.048876,16.8051282 L117.048876,16.3620513 C117.048876,15.254359 116.64302,14.4364103 115.832346,13.9066667 C115.022191,13.3774359 114.055618,13.1128205 112.933146,13.1128205 C111.984761,13.1128205 111.074312,13.3102564 110.201798,13.7035897 C109.604705,13.9728205 109.078287,14.2820513 108.621503,14.6312821 C108.276447,14.8953846 107.787444,14.86 107.505267,14.5317949 L106.231053,13.0517949 C105.935885,12.7082051 105.98941,12.1897436 106.347978,11.9117949 C107.215295,11.24 108.181348,10.7174359 109.247697,10.3435897 C110.581671,9.87589744 111.934874,9.64205128 113.307303,9.64205128 C114.903188,9.64205128 116.219494,9.86358974 117.254663,10.3066667 C118.289312,10.7497436 119.106742,11.3282051 119.705393,12.0420513 C120.304045,12.7564103 120.721854,13.5558974 120.95882,14.4420513 C121.195787,15.3282051 121.31427,16.214359 121.31427,17.1005128 L121.31427,27.0917949 C121.31427,27.5282051 120.955702,27.8820513 120.513469,27.8820513 L117.925028,27.8820513 C117.482275,27.8820513 117.123708,27.5282051 117.123708,27.0917949 L117.123708,25.6297436 L117.123708,25.6297436 Z" id="Fill-6" fill="#FFFFFF"></path>
                    <path d="M127.352753,10.1589744 L130.053441,10.1589744 C130.495674,10.1589744 130.854761,10.5128205 130.854761,10.9497436 L130.854761,13.1128205 L130.929593,13.1128205 C131.427949,12.0789744 132.126896,11.2425641 133.024354,10.6020513 C133.922851,9.96205128 134.970492,9.64205128 136.167795,9.64205128 C136.341882,9.64205128 136.528961,9.64820513 136.728511,9.66051282 C136.928062,9.67333333 137.103188,9.70358974 137.252851,9.75282051 L137.252851,13.814359 C136.953525,13.7405128 136.697331,13.6912821 136.485829,13.6666667 C136.273287,13.6425641 136.06802,13.6297436 135.868469,13.6297436 C134.845253,13.6297436 134.022107,13.814359 133.399031,14.1835897 C132.774916,14.5528205 132.288511,14.9958974 131.939817,15.5128205 C131.590084,16.0297436 131.353638,16.5594872 131.228399,17.1005128 C131.10368,17.6420513 131.04184,18.0728205 131.04184,18.3928205 L131.04184,27.0917949 C131.04184,27.5282051 130.683272,27.8820513 130.24052,27.8820513 L127.352753,27.8820513 C126.91052,27.8820513 126.551433,27.5282051 126.551433,27.0917949 L126.551433,10.9497436 C126.551433,10.5128205 126.91052,10.1589744 127.352753,10.1589744" id="Fill-7" fill="#FFFFFF"></path>
                    <path d="M137.140604,12.9128205 L137.140604,10.9497436 C137.140604,10.5128205 137.499691,10.1589744 137.941924,10.1589744 L139.482725,10.1589744 C139.924958,10.1589744 140.283525,9.80461538 140.283525,9.36820513 L140.283525,5.8174359 C140.283525,5.38051282 140.642612,5.02666667 141.084846,5.02666667 L143.897781,5.02666667 C144.340014,5.02666667 144.698581,5.38051282 144.698581,5.8174359 L144.698581,9.36820513 C144.698581,9.80461538 145.057669,10.1589744 145.499902,10.1589744 L148.387669,10.1589744 C148.830421,10.1589744 149.188989,10.5128205 149.188989,10.9497436 L149.188989,12.9128205 C149.188989,13.3497436 148.830421,13.7035897 148.387669,13.7035897 L145.499902,13.7035897 C145.057669,13.7035897 144.698581,14.0574359 144.698581,14.494359 L144.698581,21.9374359 C144.698581,22.725641 144.842008,23.3774359 145.128862,23.894359 C145.415716,24.4112821 146.058539,24.6697436 147.055772,24.6697436 C147.355618,24.6697436 147.679368,24.6389744 148.029101,24.5774359 C148.032219,24.5769231 148.035857,24.5764103 148.039494,24.5753846 C148.527978,24.4892308 148.98684,24.8251282 149.008146,25.3148718 L149.087654,27.1625641 C149.103244,27.5302564 148.86368,27.8671795 148.502514,27.9584615 C148.253076,28.0215385 147.982851,28.0758974 147.69184,28.1220513 C147.143076,28.2082051 146.619775,28.2512821 146.120899,28.2512821 C144.923596,28.2512821 143.950787,28.0851282 143.201952,27.7528205 C142.454157,27.4205128 141.860702,26.9651282 141.425225,26.3866667 C140.988188,25.8082051 140.689382,25.1441026 140.527247,24.3928205 C140.364593,23.6425641 140.283525,22.8364103 140.283525,21.974359 L140.283525,14.494359 C140.283525,14.0574359 139.924958,13.7035897 139.482725,13.7035897 L137.941924,13.7035897 C137.499691,13.7035897 137.140604,13.3497436 137.140604,12.9128205" id="Fill-8" fill="#FFFFFF"></path>
                    <path d="M164.221798,17.2482051 C164.723272,17.2482051 165.095351,16.7994872 165.012205,16.3117949 C164.972191,16.0774359 164.917107,15.8482051 164.846952,15.6235897 C164.684298,15.1066667 164.429143,14.6512821 164.07993,14.2574359 C163.730197,13.8635897 163.287963,13.5502564 162.751671,13.3158974 C162.21486,13.0820513 161.585028,12.9651282 160.862177,12.9651282 C159.515211,12.9651282 158.374031,13.365641 157.438638,14.1651282 C156.768792,14.7384615 156.312528,15.4282051 156.071404,16.2353846 C155.920183,16.7405128 156.310969,17.2482051 156.844663,17.2482051 L164.221798,17.2482051 L164.221798,17.2482051 Z M169.580042,19.2420513 L169.580042,19.8328205 C169.580042,20.0302564 169.567051,20.2266667 169.542626,20.4235897 L156.84934,20.4235897 C156.317725,20.4235897 155.919663,20.9302564 156.076081,21.4317949 C156.157149,21.6912821 156.262121,21.94 156.390997,22.1774359 C156.677331,22.7066667 157.058244,23.1620513 157.532177,23.5435897 C158.00611,23.9251282 158.542402,24.2266667 159.141053,24.4482051 C159.739705,24.6697436 160.362781,24.7805128 161.01184,24.7805128 C162.134312,24.7805128 163.081657,24.5774359 163.855435,24.1712821 C164.401081,23.8846154 164.878652,23.5215385 165.287626,23.0815385 C165.577079,22.7702564 166.05361,22.72 166.387753,22.9835897 L168.124986,24.3553846 C168.482514,24.6379487 168.530843,25.1620513 168.22684,25.5 C166.486489,27.4328205 164.09448,28.3989744 161.049256,28.3989744 C159.652402,28.3989744 158.367795,28.1830769 157.195435,27.7528205 C156.022556,27.3225641 155.006615,26.7133333 154.146053,25.9251282 C153.285492,25.1379487 152.612008,24.1712821 152.125604,23.0271795 C151.639199,21.8820513 151.395997,20.5835897 151.395997,19.1312821 C151.395997,17.7041026 151.639199,16.4051282 152.125604,15.2358974 C152.612008,14.0666667 153.279256,13.0702564 154.127346,12.2451282 C154.975435,11.4205128 155.979424,10.7810256 157.139312,10.3251282 C158.299199,9.86974359 159.552626,9.64205128 160.899593,9.64205128 C162.146784,9.64205128 163.299916,9.84512821 164.360548,10.2512821 C165.42014,10.6574359 166.337346,11.2610256 167.110604,12.0605128 C167.883862,12.8605128 168.48875,13.8574359 168.925267,15.0512821 C169.361264,16.2451282 169.580042,17.6420513 169.580042,19.2420513 L169.580042,19.2420513 Z" id="Fill-9" fill="#FFFFFF"></path>
                    <path d="M174.721067,10.1589744 L177.421236,10.1589744 C177.863989,10.1589744 178.222556,10.5128205 178.222556,10.9497436 L178.222556,13.1128205 L178.297907,13.1128205 C178.796264,12.0789744 179.494691,11.2425641 180.392669,10.6020513 C181.290646,9.96205128 182.338287,9.64205128 183.53611,9.64205128 C183.710197,9.64205128 183.896756,9.64820513 184.096826,9.66051282 C184.296376,9.67333333 184.471503,9.70358974 184.621166,9.75282051 L184.621166,13.814359 C184.32132,13.7405128 184.065126,13.6912821 183.853624,13.6666667 C183.641601,13.6425641 183.435815,13.6297436 183.236784,13.6297436 C182.213567,13.6297436 181.390421,13.814359 180.767346,14.1835897 C180.142711,14.5528205 179.656826,14.9958974 179.307612,15.5128205 C178.957879,16.0297436 178.721433,16.5594872 178.596713,17.1005128 C178.471994,17.6420513 178.409635,18.0728205 178.409635,18.3928205 L178.409635,27.0917949 C178.409635,27.5282051 178.051067,27.8820513 177.608834,27.8820513 L174.721067,27.8820513 C174.278315,27.8820513 173.919747,27.5282051 173.919747,27.0917949 L173.919747,10.9497436 C173.919747,10.5128205 174.278315,10.1589744 174.721067,10.1589744" id="Fill-10" fill="#FFFFFF"></path>
                    <path d="M85.7864747,24.605641 C86.4947753,24.605641 87.0684831,25.1697436 87.0684831,25.865641 C87.0684831,26.5615385 86.4947753,27.1261538 85.7864747,27.1261538 C85.0786938,27.1261538 84.5044663,26.5615385 84.5044663,25.865641 C84.5044663,25.1697436 85.0786938,24.605641 85.7864747,24.605641 L85.7864747,24.605641 Z" id="Stroke-12" stroke="#FFFFFF" stroke-width="1.65"></path>
                    <polygon id="Stroke-13" stroke="#FFFFFF" stroke-width="1.1" points="85.3645084 25.4492308 86.2089607 25.4492308 86.2089607 26.2825641 85.3645084 26.2825641"></polygon>
                    <path d="M89.6382163,8.25335076 C89.6382163,8.39722897 89.4849157,8.51418803 89.2957584,8.51418803 L82.277191,8.51418803 C82.0880337,8.51418803 81.9352528,8.39722897 81.9352528,8.25335076 L81.9352528,7.6639142 C81.9352528,7.52003599 82.0885534,7.40307692 82.277191,7.40307692 L89.2957584,7.40307692 C89.4849157,7.40307692 89.6382163,7.52003599 89.6382163,7.6639142 L89.6382163,8.25335076 L89.6382163,8.25335076 Z" id="Stroke-11" stroke="#FFFFFF" stroke-width="0.66"></path>
                </g>
            </g>
        </g>
    </g>
</svg>